<?xml version="1.0" encoding="utf-8"?>
<!-- Generator: Adobe Illustrator 21.1.0, SVG Export Plug-In . SVG Version: 6.00 Build 0)  -->
<svg version="1.1" id="Icons" xmlns="http://www.w3.org/2000/svg" xmlns:xlink="http://www.w3.org/1999/xlink" x="0px" y="0px"
	 viewBox="0 0 48 48" style="enable-background:new 0 0 48 48;" xml:space="preserve">
<style type="text/css">
	.st0{opacity:0.15;fill:#45413C;}
	.st1{fill:#DAEDF7;stroke:#45413C;stroke-linecap:round;stroke-linejoin:round;stroke-miterlimit:10;}
	.st2{fill:#656769;}
	.st3{fill:#87898C;}
	.st4{fill:none;stroke:#45413C;stroke-linecap:round;stroke-linejoin:round;stroke-miterlimit:10;}
	.st5{fill:#DAEDF7;}
	.st6{fill:#E8F4FA;}
	.st7{fill:#FFFFFF;}
	.st8{fill:#E0E0E0;}
	.st9{fill:#00B8F0;}
	.st10{fill:#FF6242;stroke:#45413C;stroke-linecap:round;stroke-linejoin:round;stroke-miterlimit:10;}
	.st11{fill:#FFE500;stroke:#45413C;stroke-linecap:round;stroke-linejoin:round;stroke-miterlimit:10;}
	.st12{fill:#00DBA8;stroke:#45413C;stroke-linecap:round;stroke-linejoin:round;stroke-miterlimit:10;}
	.st13{fill:#BF8DF2;stroke:#45413C;stroke-linecap:round;stroke-linejoin:round;stroke-miterlimit:10;}
	.st14{fill:#00B8F0;stroke:#45413C;stroke-linecap:round;stroke-linejoin:round;stroke-miterlimit:10;}
	.st15{fill:#87898C;stroke:#45413C;stroke-linecap:round;stroke-linejoin:round;stroke-miterlimit:10;}
	.st16{fill:#FF6242;}
	.st17{fill:#E04122;}
	.st18{fill:#9CEB60;}
	.st19{fill:#6DD627;}
	.st20{fill:#FF866E;}
	.st21{fill:#F0F0F0;}
	.st22{fill:#009FD9;}
	.st23{fill:#656769;stroke:#45413C;stroke-linecap:round;stroke-linejoin:round;stroke-miterlimit:10;}
	.st24{fill:#ADC4D9;}
	.st25{fill:#8CA4B8;}
	.st26{fill:#BDBEC0;}
	.st27{fill:#C0DCEB;stroke:#45413C;stroke-linecap:round;stroke-linejoin:round;stroke-miterlimit:10;}
	.st28{fill:#4ACFFF;}
	.st29{fill:#FFFFFF;stroke:#45413C;stroke-linecap:round;stroke-linejoin:round;stroke-miterlimit:10;}
	.st30{fill:#C0DCEB;}
	.st31{fill:#FFAA54;stroke:#45413C;stroke-linecap:round;stroke-linejoin:round;stroke-miterlimit:10;}
	.st32{fill:#FF8A14;}
	.st33{fill:#FFAA54;}
	.st34{fill:#6DD627;stroke:#45413C;stroke-linecap:round;stroke-linejoin:round;stroke-miterlimit:10;}
	.st35{fill:#DEBB7E;}
	.st36{fill:#F0D5A8;}
	.st37{fill:none;stroke:#45413C;stroke-miterlimit:10;}
	.st38{fill:#FFE500;}
	.st39{fill:#FFF48C;}
	.st40{fill:#FFF48C;stroke:#45413C;stroke-linecap:round;stroke-linejoin:round;stroke-miterlimit:10;}
	.st41{fill:#FF8A14;stroke:#45413C;stroke-linecap:round;stroke-linejoin:round;stroke-miterlimit:10;}
	.st42{fill:#525252;}
	.st43{fill:#00F5BC;}
	.st44{fill:#8CFFE4;}
	.st45{fill:#00DBA8;}
	.st46{fill:#EBCB00;}
	.st47{fill:#FF866E;stroke:#45413C;stroke-linecap:round;stroke-linejoin:round;stroke-miterlimit:10;}
	.st48{fill:#FFCC99;}
	.st49{fill:#45413C;stroke:#45413C;stroke-linecap:round;stroke-linejoin:round;stroke-miterlimit:10;}
	.st50{fill:#C8FFA1;}
	.st51{fill:#BDBEC0;stroke:#45413C;stroke-linecap:round;stroke-linejoin:round;stroke-miterlimit:10;}
	.st52{fill:#80DDFF;}
	.st53{fill:#4ACFFF;stroke:#45413C;stroke-linecap:round;stroke-linejoin:round;stroke-miterlimit:10;}
	.st54{fill:#FFFCE5;}
	.st55{fill:#FFFACF;}
	.st56{fill:#627B8C;}
	.st57{fill:#BF8256;}
	.st58{fill:#DEA47A;}
	.st59{fill:#BF8256;stroke:#45413C;stroke-linecap:round;stroke-linejoin:round;stroke-miterlimit:10;}
	.st60{fill:#DEBB7E;stroke:#45413C;stroke-linecap:round;stroke-linejoin:round;stroke-miterlimit:10;}
	.st61{fill:#B89558;}
	.st62{fill:#B8ECFF;}
	.st63{fill:#F7E5C6;}
	.st64{fill:#FFF5E3;}
	.st65{fill:#915E3A;}
	.st66{fill:#45413C;stroke:#45413C;stroke-miterlimit:10;}
	.st67{fill:#FFB0CA;stroke:#45413C;stroke-linecap:round;stroke-linejoin:round;stroke-miterlimit:10;}
	.st68{fill:#FF87AF;stroke:#45413C;stroke-linecap:round;stroke-linejoin:round;stroke-miterlimit:10;}
	.st69{fill:#E5FEFF;}
	.st70{fill:#A6FBFF;}
	.st71{fill:#FFB0CA;}
	.st72{fill:#FF87AF;}
	.st73{fill:none;stroke:#45413C;stroke-linecap:round;stroke-miterlimit:10;}
	.st74{fill:#BF8DF2;}
	.st75{fill:#DABFF5;}
	.st76{fill:#4AEFF7;}
	.st77{fill:#00DFEB;}
	.st78{fill:#FFCEBF;}
	.st79{fill:#FF6196;stroke:#45413C;stroke-linecap:round;stroke-linejoin:round;stroke-miterlimit:10;}
	.st80{fill:#00DFEB;stroke:#45413C;stroke-linecap:round;stroke-linejoin:round;stroke-miterlimit:10;}
	.st81{fill:#FF6196;}
	.st82{fill:#EBCB00;stroke:#45413C;stroke-linecap:round;stroke-linejoin:round;stroke-miterlimit:10;}
	.st83{fill:#00F5BC;stroke:#45413C;stroke-linecap:round;stroke-linejoin:round;stroke-miterlimit:10;}
	.st84{fill:#4AEFF7;stroke:#45413C;stroke-linecap:round;stroke-linejoin:round;stroke-miterlimit:10;}
	.st85{fill:#46B000;}
	.st86{fill:#E0366F;}
	.st87{fill:#E0366F;stroke:#45413C;stroke-linecap:round;stroke-linejoin:round;stroke-miterlimit:10;}
	.st88{fill:none;stroke:#E04122;stroke-linecap:round;stroke-linejoin:round;stroke-miterlimit:10;}
	.st89{fill:#FFA694;}
	.st90{fill:#EDDBFF;stroke:#45413C;stroke-linecap:round;stroke-linejoin:round;stroke-miterlimit:10;}
	.st91{fill:none;stroke:#BF8DF2;stroke-linecap:round;stroke-linejoin:round;stroke-miterlimit:10;}
	.st92{fill:#EDDBFF;}
	.st93{fill:#DABFF5;stroke:#45413C;stroke-linecap:round;stroke-linejoin:round;stroke-miterlimit:10;}
	.st94{fill:#E04122;stroke:#45413C;stroke-linecap:round;stroke-linejoin:round;stroke-miterlimit:10;}
	.st95{fill:#EB6D00;}
	.st96{fill:none;stroke:#45413C;stroke-width:1.0064;stroke-linecap:round;stroke-linejoin:round;stroke-miterlimit:10;}
	.st97{fill:#915E3A;stroke:#45413C;stroke-linecap:round;stroke-linejoin:round;stroke-miterlimit:10;}
	.st98{fill:#E0E0E0;stroke:#45413C;stroke-linecap:round;stroke-linejoin:round;stroke-miterlimit:10;}
	.st99{fill:#F0F0F0;stroke:#45413C;stroke-linecap:round;stroke-linejoin:round;stroke-miterlimit:10;}
	.st100{fill:#46B000;stroke:#45413C;stroke-linecap:round;stroke-linejoin:round;stroke-miterlimit:10;}
	.st101{fill:#4F4B45;}
	.st102{fill:#FFDCD1;}
	.st103{fill:#8CA4B8;stroke:#45413C;stroke-linecap:round;stroke-linejoin:round;stroke-miterlimit:10;}
	.st104{fill:#E8F4FA;stroke:#45413C;stroke-linecap:round;stroke-linejoin:round;stroke-miterlimit:10;}
	.st105{fill:none;stroke:#48CF3E;stroke-linecap:round;stroke-linejoin:round;stroke-miterlimit:10;}
	.st106{fill:none;stroke:#FF4064;stroke-linecap:round;stroke-linejoin:round;stroke-miterlimit:10;}
	.st107{fill:none;stroke:#FFB700;stroke-linecap:round;stroke-linejoin:round;stroke-miterlimit:10;}
	.st108{fill:none;stroke:#00AED9;stroke-linecap:round;stroke-linejoin:round;stroke-miterlimit:10;}
	.st109{fill:#C0DCEB;stroke:#45413C;stroke-miterlimit:10;}
	.st110{fill:#525252;stroke:#45413C;stroke-linecap:round;stroke-linejoin:round;stroke-miterlimit:10;}
	.st111{fill:#FFF5E3;stroke:#45413C;stroke-linecap:round;stroke-linejoin:round;stroke-miterlimit:10;}
	.st112{fill:#FFFFFF;stroke:#45413C;stroke-linejoin:round;stroke-miterlimit:10;}
	.st113{fill:#F0C2A1;}
	.st114{fill:#DEA47A;stroke:#45413C;stroke-linecap:round;stroke-linejoin:round;stroke-miterlimit:10;}
	.st115{fill:#F0C2A1;stroke:#45413C;stroke-linecap:round;stroke-linejoin:round;stroke-miterlimit:10;}
	.st116{fill:#FFFEF2;}
	.st117{fill:#9CEB60;stroke:#45413C;stroke-linecap:round;stroke-linejoin:round;stroke-miterlimit:10;}
	.st118{fill:#9F5AE5;stroke:#45413C;stroke-linecap:round;stroke-linejoin:round;stroke-miterlimit:10;}
	.st119{fill:#627B8C;stroke:#45413C;stroke-linecap:round;stroke-linejoin:round;stroke-miterlimit:10;}
	.st120{fill:#FFFACF;stroke:#45413C;stroke-linecap:round;stroke-linejoin:round;stroke-miterlimit:10;}
</style>
<g id="XMLID_16592_">
	<ellipse id="XMLID_16610_" class="st0" cx="24" cy="45" rx="15" ry="2"/>
	<path id="XMLID_16609_" class="st5" d="M24,20.8v23.7c0.8,0,1.6-0.1,2.4-0.4l15.4-6c1.5-0.6,2.5-2,2.5-3.7V15.6
		c0-0.9-0.3-1.7-0.8-2.4L24,20.8z"/>
	<path id="XMLID_16608_" class="st5" d="M4.6,13.3c-0.5,0.7-0.8,1.5-0.8,2.4v18.8c0,1.6,1,3.1,2.5,3.7l15.4,6
		c0.8,0.3,1.6,0.4,2.4,0.4V20.8L4.6,13.3z"/>
	<path id="XMLID_16607_" class="st7" d="M24,20.8v23.7c0.8,0,1.6-0.1,2.4-0.4l15.4-6c1.5-0.6,2.5-2,2.5-3.7V15.6
		c0-0.9-0.3-1.7-0.8-2.4L24,20.8z"/>
	<path id="XMLID_16606_" class="st7" d="M4.6,13.3c-0.5,0.7-0.8,1.5-0.8,2.4v18.8c0,1.6,1,3.1,2.5,3.7l15.4,6
		c0.8,0.3,1.6,0.4,2.4,0.4V20.8L4.6,13.3z"/>
	<path id="XMLID_16605_" class="st5" d="M41.7,34.4l-15.4,6c-0.8,0.3-1.6,0.4-2.4,0.4v3.7c0.8,0,1.6-0.1,2.4-0.4l15.4-6
		c1.5-0.6,2.5-2,2.5-3.7v-3.7C44.2,32.4,43.3,33.8,41.7,34.4z"/>
	<path id="XMLID_16604_" class="st5" d="M6.3,34.4c-1.5-0.6-2.5-2-2.5-3.7v3.7c0,1.6,1,3.1,2.5,3.7l15.4,6c0.8,0.3,1.6,0.4,2.4,0.4
		v-3.7c-0.8,0-1.6-0.1-2.4-0.4L6.3,34.4z"/>
	<path id="XMLID_16603_" class="st4" d="M24,20.8v23.7c0.8,0,1.6-0.1,2.4-0.4l15.4-6c1.5-0.6,2.5-2,2.5-3.7V15.6
		c0-0.9-0.3-1.7-0.8-2.4L24,20.8z"/>
	<path id="XMLID_16602_" class="st4" d="M4.6,13.3c-0.5,0.7-0.8,1.5-0.8,2.4v18.8c0,1.6,1,3.1,2.5,3.7l15.4,6
		c0.8,0.3,1.6,0.4,2.4,0.4V20.8L4.6,13.3z"/>
	<path id="XMLID_16601_" class="st7" d="M24,20.8l19.4-7.5c-0.4-0.6-1-1-1.7-1.3L26.4,6c-1.5-0.6-3.2-0.6-4.7,0L6.3,12
		c-0.7,0.3-1.3,0.7-1.7,1.3L24,20.8z"/>
	<path id="XMLID_16600_" class="st5" d="M41.7,12l-1.3-0.5L26,17.1c-1.3,0.5-2.8,0.5-4.1,0L7.5,11.5L6.3,12
		c-0.7,0.3-1.3,0.7-1.7,1.3L24,20.8l19.4-7.5C43,12.7,42.4,12.3,41.7,12z"/>
	<path id="XMLID_16599_" class="st4" d="M24,20.8l19.4-7.5c-0.4-0.6-1-1-1.7-1.3L26.4,6c-1.5-0.6-3.2-0.6-4.7,0L6.3,12
		c-0.7,0.3-1.3,0.7-1.7,1.3L24,20.8z"/>
	<ellipse id="XMLID_16598_" class="st10" cx="24" cy="12.9" rx="4.6" ry="2"/>
	
		<ellipse id="XMLID_16597_" transform="matrix(0.9897 -0.1432 0.1432 0.9897 -3.3789 1.6758)" class="st23" cx="10" cy="24.3" rx="1.6" ry="2.9"/>
	
		<ellipse id="XMLID_16596_" transform="matrix(0.1432 -0.9897 0.9897 0.1432 13.4289 57.574)" class="st23" cx="40" cy="21" rx="2.9" ry="1.6"/>
	
		<ellipse id="XMLID_16595_" transform="matrix(0.1432 -0.9897 0.9897 0.1432 -11.5373 60.0902)" class="st23" cx="28.9" cy="36.7" rx="2.9" ry="1.6"/>
	
		<ellipse id="XMLID_16594_" transform="matrix(0.1432 -0.9897 0.9897 0.1432 1.1525 59.1538)" class="st23" cx="34.7" cy="28.9" rx="2.9" ry="1.6"/>
	
		<ellipse id="XMLID_16593_" transform="matrix(0.9897 -0.1432 0.1432 0.9897 -4.6314 2.618)" class="st23" cx="15.9" cy="33.5" rx="1.6" ry="2.9"/>
</g>
</svg>
